# xmcd
#
# Track frame offsets: 
#        150
#        21280
#        42642
#        67782
#        87605
#        115355
#        142692
#        165157
#        182965
#        205817
#        224940
#
# Disc length: 3370 seconds
#
# Revision: 2
# Processed by: cddbd v1.5.2PL0 Copyright (c) Steve Scherf et al.
# Submitted via: ExactAudioCopy v1.0b3
#
DISCID=a10d280b
DTITLE=大塚純子 - NEAT
DYEAR=1991
DGENRE=JPop
TTITLE0=いちばん好きな夕焼け
TTITLE1=TEARS
TTITLE2=Miss You
TTITLE3=ひだり腕のタイムマシーン
TTITLE4=あの自転車
TTITLE5=HORIZON
TTITLE6=ひとりきりのgraduation
TTITLE7=Rainy Eyes
TTITLE8=1秒の妹
TTITLE9=空に向かう気持ち
TTITLE10=8月の坂道
EXTD=
EXTT0=
EXTT1=
EXTT2=
EXTT3=
EXTT4=
EXTT5=
EXTT6=
EXTT7=
EXTT8=
EXTT9=
EXTT10=
PLAYORDER=
